<svg xmlns="http://www.w3.org/2000/svg" width="33.624" height="33.624" style="enable-background:new 0 0 33.624 33.624" xml:space="preserve">
  <path d="M12.951 23.915H8.78v-2.61a2.35 2.35 0 0 1 1.919-2.311c.598.543 1.39.879 2.26.881a3.365 3.365 0 0 0 2.26-.881 2.343 2.343 0 0 1 1.584 1.104 2.352 2.352 0 0 1 1.583-1.104 3.372 3.372 0 0 0 2.252.883v-.002l.018.002.02-.002v.002a3.373 3.373 0 0 0 2.251-.883 2.345 2.345 0 0 1 1.919 2.309v2.611H12.968l-.017.001zm-3.979-4.409s-.069-.479-.069-1.053c-.033-2.869 1.999-4.304 2.643-4.621l-.007.017c.42-.229.901-.355 1.412-.361h.016c.511.006.992.135 1.412.361l-.007-.017c.644.317 2.676 1.752 2.642 4.621 0 .573-.068 1.053-.068 1.053s-.857-.991-1.825-.926a2.999 2.999 0 0 1-2.153.926v.002l-.008-.002-.008.002v-.002a2.989 2.989 0 0 1-2.154-.926c-.968-.065-1.826.926-1.826.926zm1.538-2.86a2.463 2.463 0 0 0 2.448 2.313 2.463 2.463 0 0 0 2.447-2.313c-.685-.515-2.322-1.519-2.424-2.174l-.023-.019-.023.019c-.101.655-1.74 1.659-2.425 2.174zm7.138-.145a3.016 3.016 0 0 1 3.012-3.014 3.016 3.016 0 0 1 3.01 3.014c0 1.66-1.352 3.01-3.01 3.01a3.016 3.016 0 0 1-3.012-3.01zm.549 0a2.468 2.468 0 0 0 2.463 2.463c1.283 0 2.339-.99 2.449-2.246-.524-.482-1.041-1.459-1.141-2.146-.126.382-2.912.939-3.59 1a2.453 2.453 0 0 0-.181.929zm15.427-5.295v14.988a2.278 2.278 0 0 1-2.271 2.272H20.309l-3.497 4.804-3.496-4.804H2.271A2.278 2.278 0 0 1 0 26.194V11.206a2.277 2.277 0 0 1 2.271-2.271h29.083a2.275 2.275 0 0 1 2.27 2.271zM3.407 18.702a1.137 1.137 0 1 0-2.274-.004 1.137 1.137 0 0 0 2.274.004zm26.616-8.188H4.203v16.373h7.964l-.017-.022h1.482l3.18 4.371 3.18-4.371h1.482l-.018.022h8.566V10.514h.001zm1.965 5.788a.275.275 0 0 0-.275-.275.275.275 0 0 0-.273.275v4.795a.273.273 0 1 0 .548 0v-4.795zM21.574 3.459l.803-.805c-3.068-3.066-8.062-3.066-11.129 0l.803.805c2.624-2.625 6.898-2.625 9.523 0zm-.586.586a5.912 5.912 0 0 0-8.352 0l.803.804a4.783 4.783 0 0 1 6.745 0l.804-.804zM14.07 5.48l.804.804a2.745 2.745 0 0 1 3.876 0l.805-.805a3.882 3.882 0 0 0-5.485.001z"/>
</svg>
