<svg xmlns="http://www.w3.org/2000/svg" version="1.1" xmlns:xlink="http://www.w3.org/1999/xlink" xmlns:svgjs="http://svgjs.dev/svgjs" viewBox="0 0 800 800"><defs><linearGradient x1="50%" y1="0%" x2="50%" y2="100%" id="nnneon-grad"><stop stop-color="hsl(157, 62%, 57%)" stop-opacity="1" offset="0%"></stop><stop stop-color="hsl(280, 83%, 31%)" stop-opacity="1" offset="100%"></stop></linearGradient><filter id="nnneon-filter" x="-100%" y="-100%" width="400%" height="400%" filterUnits="objectBoundingBox" primitiveUnits="userSpaceOnUse" color-interpolation-filters="sRGB">
	<feGaussianBlur stdDeviation="22 17" x="0%" y="0%" width="100%" height="100%" in="SourceGraphic" edgeMode="none" result="blur"></feGaussianBlur></filter><filter id="nnneon-filter2" x="-100%" y="-100%" width="400%" height="400%" filterUnits="objectBoundingBox" primitiveUnits="userSpaceOnUse" color-interpolation-filters="sRGB">
	<feGaussianBlur stdDeviation="10 17" x="0%" y="0%" width="100%" height="100%" in="SourceGraphic" edgeMode="none" result="blur"></feGaussianBlur></filter></defs><g stroke-width="27.5" stroke="url(#nnneon-grad)" fill="none"><path d="M400.00001525878906 105.55178833007812L655.0000315531245 252.77590169129223V547.2241284137206L400.00001525878906 694.4482417749347L144.9999989644536 547.2241284137206V252.77590169129223L400.00001525878906 105.55178833007812Z " filter="url(#nnneon-filter)"></path><path d="M412.00001525878906 105.55178833007812L667.0000315531245 252.77590169129223V547.2241284137206L412.00001525878906 694.4482417749347L156.9999989644536 547.2241284137206V252.77590169129223L412.00001525878906 105.55178833007812Z " filter="url(#nnneon-filter2)" opacity="0.25"></path><path d="M388.00001525878906 105.55178833007812L643.0000315531245 252.77590169129223V547.2241284137206L388.00001525878906 694.4482417749347L132.9999989644536 547.2241284137206V252.77590169129223L388.00001525878906 105.55178833007812Z " filter="url(#nnneon-filter2)" opacity="0.25"></path><path d="M400.00001525878906 105.55178833007812L655.0000315531245 252.77590169129223V547.2241284137206L400.00001525878906 694.4482417749347L144.9999989644536 547.2241284137206V252.77590169129223L400.00001525878906 105.55178833007812Z "></path></g></svg>